<svg xmlns="http://www.w3.org/2000/svg" width="41" height="27" viewBox="0 0 41 27">
  <defs>
    <style>
      .cls-1 {
        fill: #ffc80a;
        fill-rule: evenodd;
      }
    </style>
  </defs>
  <path id="blockq.svg" class="cls-1" d="M637.937,2240A17.985,17.985,0,0,0,620,2258a1.27,1.27,0,0,0,.015.15c-0.009.16-.015,0.32-0.015,0.49a8.328,8.328,0,1,0,8.327-8.36,8.231,8.231,0,0,0-4.337,1.23,15.4,15.4,0,0,1,13.947-8.95A1.28,1.28,0,1,0,637.937,2240Zm21.78,0a17.986,17.986,0,0,0-17.938,18,1.27,1.27,0,0,0,.015.15c-0.009.16-.015,0.32-0.015,0.49a8.343,8.343,0,1,0,4-7.14,15.391,15.391,0,0,1,13.939-8.94A1.28,1.28,0,1,0,659.717,2240Z" transform="translate(-620 -2240)"/>
</svg>
